<?xml version="1.0" encoding="UTF-8"?><svg id="Ebene_1" xmlns="http://www.w3.org/2000/svg" viewBox="0 0 700 1085"><defs><style>.cls-1{fill:#299f33;}</style></defs><path class="cls-1" d="M302.78,59.8c3.62,.02,36.18,.52,77.95,10.79,24.85,6.11,48.1,14.48,69.1,24.86,25.81,12.77,48.3,28.67,66.85,47.26,20.92,20.97,37.21,45.78,48.42,73.76,12.9,32.21,19.4,69.42,19.31,110.59v2.27s.57,2.19,.57,2.19c6.15,23.27,27.67,53.88,63.97,90.98l.94,.96,1.08,.81c5.48,4.09,7.89,7.37,8.95,9.41,.98,1.88,1.24,3.48,.89,5.33-.53,2.83-2.64,5.92-6.25,9.21-5.11,4.64-12.9,9.34-23.15,13.95-5.95,2.68-9.87,3.99-14.83,5.65l-1.73,.58-20.25,6.82,10.88,18.39c3.36,5.68,6.5,11.2,9.33,16.41l.61,1.13,.77,1.03c5.23,6.94,11.21,16.99,10.01,25.46-1.13,7.96-8.7,13.63-13.23,17.02-.81,.61-1.58,1.18-2.3,1.76l-15.01,12.01,13.51,13.67c5.6,5.66,7.17,15.56,7.41,23.64-.86,.92-2.08,2.12-3.13,3.15-9.31,9.18-18.48,19.12-19.59,30.77l-.21,2.23,.36,2.21c3.12,19.01,1.53,32.95-4.61,40.31-7.03,8.44-20.92,8.69-29.22,8.84-.78,.01-1.51,.03-2.22,.05-12.39-3.37-63.32-16.49-105.86-16.49-19.48,0-34.6,2.68-46.22,8.19-16.84,7.98-26.12,22.14-26.12,39.88v.16s.24,25.69,.24,25.69H118.49c7.33-26.94,18.05-72.45,17.31-105.76-1.45-65.4-26.09-108.17-49.92-149.53-24.11-41.85-46.88-81.38-46.88-145.12,0-54.37,7.72-101.77,22.94-140.87,13.53-34.74,33.35-63.8,58.91-86.36,22.9-20.2,51.09-35.82,83.79-46.42,28.83-9.35,61.85-15.02,98.14-16.87m-.29-17.3c-.09,0-.13,0-.13,0C162.02,49.52,21.69,113.2,21.69,350.32c0,133.32,94.03,169.87,96.81,295.04,1.04,46.9-23.05,122.67-23.05,122.67H397.49l-.4-43.15c0-23.63,24.92-30.76,55.04-30.76,45.9,0,103.83,16.58,103.83,16.58h.35c12.22-.94,67.07,5.41,54.79-69.39,.6-6.36,9.65-15.29,14.51-20.08,5.19-5.12,8.32-8.2,8.32-13.11,0-16.98-4.19-29.81-12.44-38.16,7.28-5.83,40.49-25.75,8.53-68.16-3.45-6.35-6.87-12.28-9.64-16.97,5.75-1.94,10.65-3.48,18.14-6.85,23.94-10.77,36.79-22.46,39.3-35.72,2.15-11.36-3.4-22.06-16.5-31.83-16.43-16.8-52.1-54.87-59.61-83.3,.61-282.9-292.14-284.6-299.21-284.6h0Z"/><g><rect class="cls-1" x="421.23" y="432.22" width="33.19" height="178.6"/><path class="cls-1" d="M346.88,541.37c-2.63-3.79-5.39-7.05-8.3-9.79-2.91-2.73-6.05-5.03-9.42-6.88-3.38-1.85-7.31-3.31-11.81-4.37,7.88-3.17,14.25-7.41,19.13-12.7,4.87-5.29,9.47-11.91,13.78-19.84l29.81-55.56h-35.72l-28.97,53.45c-2.63,4.94-5.11,8.86-7.45,11.77-2.35,2.91-5.2,5.16-8.58,6.75-3.37,1.59-7.64,2.6-12.8,3.04-5.16,.44-11.77,.66-19.83,.66h-18.28v-75.67h-33.19v178.6h33.19v-74.61h18.28c9,0,16.31,.22,21.94,.66,5.63,.44,10.31,1.46,14.06,3.04,3.75,1.59,6.84,3.8,9.28,6.62,2.44,2.82,4.97,6.61,7.59,11.38l28.97,52.92h37.13l-30.66-56.09c-2.81-5.11-5.53-9.57-8.16-13.36Z"/></g><path class="cls-1" d="M493.88,201.62c-11.53-11.53-30.22-11.53-41.75,0-.65,.65-1.24,1.32-1.82,2.01l-108.21-42.3c.41-8.05-2.42-16.24-8.57-22.39-11.53-11.53-30.22-11.53-41.75,0-9.99,9.99-11.31,25.34-3.99,36.77l-86.18,106.32c-10.51-3.95-22.81-1.72-31.27,6.73-11.53,11.53-11.53,30.22,0,41.75,11.53,11.53,30.22,11.53,41.75,0,4.78-4.78,7.55-10.8,8.36-17.02l104.66-20.16c1.29,2.3,2.89,4.48,4.85,6.44,9.2,9.2,22.96,11.04,34,5.55l42.62,42.9c-7.92,13.66-6.07,31.44,5.63,43.14,13.95,13.95,36.57,13.95,50.52,0,13.95-13.95,13.95-36.57,0-50.52-2.41-2.41-5.1-4.38-7.94-5.96l20.53-82.96c6.77-.53,13.39-3.36,18.56-8.54,11.53-11.53,11.53-30.22,0-41.75Zm-163.92,56.4c-4.78,4.78-7.55,10.8-8.36,17.03l-104.66,20.15c-.28-.49-.56-.98-.86-1.46l86.18-106.32c3.25,1.22,6.66,1.86,10.08,1.9l21.09,65.77c-1.21,.88-2.38,1.84-3.47,2.93Zm106.75,72.39c-5.86,.12-11.68,1.69-16.92,4.68l-42.61-42.89c5.59-11.07,3.78-24.93-5.47-34.18-5.68-5.68-13.11-8.55-20.56-8.63l-21.09-65.77c1.21-.88,2.38-1.84,3.47-2.93,.65-.65,1.24-1.32,1.82-2.01l108.21,42.3c-.41,8.05,2.42,16.24,8.57,22.39,1.58,1.58,3.3,2.92,5.11,4.07l-20.53,82.97Z"/><path class="cls-1" d="M201.2,822.23c11.27,0,20.96,1.63,29.08,4.9,8.11,3.26,14.78,7.62,20.03,13.05,5.24,5.44,9.1,11.82,11.57,19.14,2.47,7.32,3.71,14.94,3.71,22.85s-1.14,15.03-3.41,22.55c-2.28,7.52-5.99,14.24-11.13,20.18-5.15,5.93-11.82,10.78-20.03,14.54-8.21,3.76-18.15,5.64-29.82,5.64h-62.31c-3.37,0-5.04,1.68-5.04,5.04v92.38h-35.01v-99.2c0-11.27,2.47-19.38,7.42-24.33,4.94-4.94,12.95-7.42,24.03-7.42h72.1c4.94,0,9.2-.79,12.76-2.37,3.56-1.58,6.42-3.66,8.6-6.23,2.17-2.57,3.81-5.49,4.9-8.75,1.09-3.26,1.63-6.68,1.63-10.24,0-7.32-2.23-13.6-6.68-18.84-4.45-5.24-11.42-7.86-20.92-7.86H98.53v-35.01h102.67Z"/><path class="cls-1" d="M329.18,842.66v4.75c0,8.77-7.11,15.87-15.87,15.87h0c-8.77,0-15.87-7.11-15.87-15.87v-4.75c0-8.77,7.11-15.87,15.87-15.87h0c8.77,0,15.87,7.11,15.87,15.87Zm-.3,43.17v156.67h-31.45v-156.67h31.45Z"/><path class="cls-1" d="M403.36,817.88v224.62h-31.45v-224.62h31.45Z"/><path class="cls-1" d="M519.05,885.83c17.56,0,31.53,6.48,41.9,19.44,10.37,12.96,15.56,32.59,15.56,58.9s-5.19,46.19-15.56,59.05c-10.37,12.86-24.34,19.29-41.9,19.29h-27.85c-17.73,0-31.74-6.43-42.02-19.29-10.29-12.86-15.43-32.54-15.43-59.05s5.14-46.19,15.43-59.05c10.29-12.85,24.29-19.29,42.02-19.29h27.85Zm-25.34,30.27c-11.54,0-19.95,3.76-25.21,11.27-5.27,7.52-7.9,19.78-7.9,36.79s2.64,29.23,7.9,36.64c5.27,7.42,13.67,11.13,25.21,11.13h22.83c11.54,0,19.95-3.71,25.22-11.13,5.27-7.42,7.9-19.63,7.9-36.64s-2.63-29.27-7.9-36.79c-5.27-7.51-13.67-11.27-25.22-11.27h-22.83Z"/><path class="cls-1" d="M617.07,885.83v-37.09h31.75v37.09h29.49v30.27h-29.49v74.18c0,8.9,1.63,15.04,4.9,18.4,3.26,3.37,8.65,5.04,16.17,5.04h7.83v28.78h-14.36c-8.11,0-15.09-.89-20.92-2.67-5.84-1.78-10.64-4.75-14.39-8.9-3.76-4.15-6.53-9.69-8.31-16.62-1.78-6.92-2.67-15.53-2.67-25.82v-72.4h-21.36v-30.27h21.36Z"/></svg>